C:/Program Files/Krita (x64)/bin/ffmpeg.exe -hide_banner -y -y -r 3 -start_number 0 -start_number_range 1 -i C:/Users/ipaol/Mr-Crux-Ansata/fotograma%04d.png -f apng -pred none -plays 0 C:/Users/ipaol/Mr-Crux-Ansata/dialogue_box2.apng
=====================================================
Input #0, image2, from 'C:/Users/ipaol/Mr-Crux-Ansata/fotograma%04d.png':
  Duration: 00:00:00.16, start: 0.000000, bitrate: N/A
  Stream #0:0: Video: png, rgba(pc, gbr/unknown/unknown), 760x560 [SAR 11811:11811 DAR 19:14], 25 fps, 25 tbr, 25 tbn
Stream mapping:
  Stream #0:0 -> #0:0 (png (native) -> apng (native))
Press [q] to stop, [?] for help
Output #0, apng, to 'C:/Users/ipaol/Mr-Crux-Ansata/dialogue_box2.apng':
  Metadata:
    encoder         : Lavf61.7.100
  Stream #0:0: Video: apng, rgba(pc, gbr/unknown/unknown, progressive), 760x560 [SAR 11811:11811 DAR 19:14], q=2-31, 200 kb/s, 3 fps, 3 tbn
      Metadata:
        encoder         : Lavc61.19.101 apng
[out#0/apng @ 000002290291ecc0] video:44KiB audio:0KiB subtitle:0KiB other streams:0KiB global headers:0KiB muxing overhead: 0.192226%
frame=    4 fps=0.0 q=-0.0 Lsize=      44KiB time=00:00:01.33 bitrate= 269.0kbits/s speed=11.3x    
